<svg width="24" height="26" viewBox="0 0 24 26" fill="none" xmlns="http://www.w3.org/2000/svg">
<g clip-path="url(#clip0_203_178)">
<mask id="mask0_203_178" style="mask-type:luminance" maskUnits="userSpaceOnUse" x="0" y="0" width="24" height="26">
<path d="M24 0H0V26H24V0Z" fill="white"/>
</mask>
<g mask="url(#mask0_203_178)">
<path d="M4.6905 17.2315L9.39304 14.3715L9.47248 14.1229L9.39304 13.9847H9.16504L8.37752 13.9328L5.691 13.8547L3.36 13.7491L1.1025 13.6191L0.5325 13.4875L0 12.727L0.054 12.3468L0.534 11.999L1.2165 12.064L2.73 12.1761L4.9995 12.3468L6.645 12.4508L9.084 12.727H9.47248L9.52648 12.5564L9.39304 12.4508L9.29096 12.3468L6.942 10.621L4.3995 8.79935L3.069 7.74963L2.349 7.21825L1.9845 6.721L1.8285 5.63225L2.481 4.85225L3.3585 4.91725L3.5835 4.98225L4.473 5.72325L6.3735 7.31737L8.85448 9.29665L9.21752 9.62485L9.36304 9.51435L9.38104 9.43479L9.21752 9.14065L7.8675 6.49838L6.4275 3.809L5.7855 2.69425L5.616 2.02637C5.55245 1.76972 5.51819 1.50557 5.514 1.23987L6.258 0.144625L6.669 0L7.662 0.144625L8.08048 0.537875L8.69704 2.06538L9.696 4.47037L11.2455 7.74312L11.6985 8.71329L11.9415 9.61185L12.0315 9.88815H12.189V9.7305L12.3165 7.88775L12.552 5.62575L12.783 2.71375L12.861 1.89475L13.236 0.911621L13.9815 0.38025L14.562 0.6825L15.0405 1.4235L14.973 1.90125L14.688 3.9L14.133 7.03625L13.7685 9.1325H13.9815L14.223 8.8725L15.204 7.462L16.8495 5.2325L17.5755 4.34687L18.423 3.37025L18.9675 2.90387H19.9965L20.754 4.12425L20.415 5.38362L19.3545 6.838L18.477 8.07137L17.2185 9.90765L16.4325 11.3766L16.5045 11.4936L16.692 11.4741L19.5375 10.8193L21.0735 10.517L22.908 10.1758L23.7375 10.595L23.8275 11.0224L23.5005 11.8934L21.54 12.4183L19.2405 12.9171L15.8145 13.7946L15.7725 13.8271L15.8205 13.8921L17.364 14.0514L18.024 14.0904H19.6395L22.647 14.3341L23.4345 14.8964L23.907 15.5854L23.8275 16.1102L22.617 16.7781L17.1705 15.3757L15.8625 15.0215H15.6825V15.1401L16.7715 16.2939L18.768 18.2471L21.2685 20.7659L21.3945 21.3882L21.0735 21.879L20.7345 21.827L18.5385 20.0379L17.691 19.2302L15.771 17.4801H15.645V17.6638L16.0875 18.3657L18.423 22.1683L18.543 23.335L18.375 23.7153L17.769 23.9444L17.103 23.8144L15.7365 21.7344L14.3265 19.3944L13.188 17.2965L13.0485 17.3826L12.3765 25.2167L12.0615 25.6165L11.3355 25.9187L10.731 25.4199L10.41 24.6139L10.731 23.0214L11.118 20.9414L11.433 19.2904L11.718 17.238L11.886 16.5555L11.874 16.51L11.736 16.5295L10.3065 18.6534L8.13448 21.8335L6.4155 23.8274L6.0045 24.0045L5.289 23.6031L5.3565 22.8881L5.7555 22.2544L8.13448 18.9751L9.56848 16.9439L10.494 15.769L10.488 15.5984H10.434L4.116 20.0444L2.991 20.2004L2.505 19.7096L2.565 18.9036L2.796 18.6404L4.6965 17.225L4.6905 17.2315Z" fill="black"/>
</g>
</g>
<defs>
<clipPath id="clip0_203_178">
<rect width="24" height="26" fill="white"/>
</clipPath>
</defs>
</svg>
